<svg xmlns="http://www.w3.org/2000/svg"
                  enable-background="new 0 0 90 90" viewBox="0 0 90 90">
                  <circle cx="45" cy="45" r="44.5" fill="#84D2ED" />
                  <polygon fill="#F1B565"
                    points="73.6 45 43.9 15.2 43.9 31.2 16.4 31.2 16.4 58.8 43.9 58.8 43.9 74.8" />
                  <path fill="#010101"
                    d="M43.9,75.8c-0.1,0-0.3,0-0.4-0.1c-0.4-0.2-0.6-0.5-0.6-0.9V59.8H16.4c-0.6,0-1-0.4-1-1V31.2     c0-0.6,0.4-1,1-1h26.5V15.2c0-0.4,0.2-0.8,0.6-0.9c0.4-0.2,0.8-0.1,1.1,0.2l29.8,29.8c0.4,0.4,0.4,1,0,1.4L44.6,75.5     C44.4,75.7,44.1,75.8,43.9,75.8z M17.4,57.8h26.5c0.6,0,1,0.4,1,1v13.5L72.2,45L44.9,17.6v13.5c0,0.6-0.4,1-1,1H17.4V57.8z" />
                </svg>