<svg xmlns="http://www.w3.org/2000/svg"
                  enable-background="new 0 0 110 110" viewBox="0 0 110 110" width="256" height="256">
                  <path fill="#ffc502"
                    d="M18.2057877 78.1979599c-.9854813-.4574203-1.4135971-1.6278915-.9556904-2.6138535 6.5802898-14.1648026 14.4069672-27.869297 23.2628498-40.7338982.6159897-.8946686 1.8407516-1.1224213 2.7373428-.5054741.895153.6159859 1.1214638 1.8421936.5049934 2.7368622C35.0238495 49.7655334 27.307682 63.277832 20.8201256 77.2427521 20.360199 78.2315292 19.1868668 78.654274 18.2057877 78.1979599zM54.3423996 83.946701c-1.3228226 0-2.4023361-.6496201-2.4180832-1.4587631l-.8787308-45.724247c-.0157471-.8149071 1.0543175-1.4837494 2.390522-1.4933586.009449 0 .0196877 0 .0291367 0 1.3228188 0 2.4023323.6496201 2.4180794 1.4587631l.8787308 45.7242508c.0157471.8149109-1.0543175 1.4837494-2.390522 1.4933548C54.3620834 83.946701 54.3518448 83.946701 54.3423996 83.946701zM72.8751144 83.6151657c-1.2574158 0-2.289917-.640007-2.3170929-1.4443512-.5094528-14.8788071-1.5313873-29.961338-3.037117-44.8257332-.0822678-.8139458.8868332-1.515461 2.1646271-1.5683136 1.3102493-.0432434 2.3819962.5650558 2.4635086 1.3780403 1.5095062 14.9066772 2.534462 30.0305328 3.0446701 44.9525833C75.2269821 83.0782852 73.9396057 83.6151657 72.8751144 83.6151657zM92.6889954 83.9565659c-1.2063141-.0606689-2.2010117-.693779-2.265358-1.4677277-1.2951202-15.6199188-2.0484543-31.4569817-2.2400055-47.0723991-.0094757-.8154526 1.0321503-1.4500732 2.3270798-1.4176674 1.2924652.0207329 2.3534164.7206802 2.3635559 1.5380898.1899567 15.5710754.9416962 31.3638039 2.232933 46.9392586.0675125.8174133-.9258728 1.4813995-2.2188187 1.4856567C92.8210907 83.9612808 92.7546158 83.9598618 92.6889954 83.9565659z"
                    class="colorffc502 svgShape"></path>
                  <circle cx="53.766" cy="88.052" r="9.642" fill="#ff5f6f" class="colorff5f6f svgShape"></circle>
                  <circle cx="17.066" cy="81.09" r="9.642" fill="#ffffff" class="colorfff svgShape"></circle>
                  <path d="M17.0666599,91.2315216c-5.5922842,0-10.1416006-4.5498047-10.1416006-10.1416016
				s4.5493164-10.1416016,10.1416006-10.1416016c5.5917969,0,10.1411133,4.5498047,10.1411133,10.1416016
				S22.6584568,91.2315216,17.0666599,91.2315216z M17.0666599,71.9483185c-5.0405264,0-9.1416006,4.1005859-9.1416006,9.1416016
				s4.1010742,9.1416016,9.1416006,9.1416016s9.1411133-4.1005859,9.1411133-9.1416016S22.1071873,71.9483185,17.0666599,71.9483185
				z" fill="#000000" class="color000 svgShape"></path>
                  <circle cx="73.049" cy="88.052" r="9.642" fill="#ff5f6f" class="colorff5f6f svgShape"></circle>
                  <circle cx="92.332" cy="88.052" r="9.642" fill="#ff5f6f" class="colorff5f6f svgShape"></circle>
                  <path fill="#68bbff" d="M98.6781693,37.7089653H27.5759983c-2.4282703,0-4.3967724-1.968502-4.3967724-4.3967743v-0.0000076
				c0-2.4282703,1.968502-4.3967724,4.3967724-4.3967724h71.1021729c2.4282684,0,4.3967743,1.968502,4.3967743,4.3967724v0.0000076
				C103.0749435,35.7404633,101.1064377,37.7089653,98.6781693,37.7089653z" class="color68bbff svgShape"></path>
                  <path d="M19.6071873,86.7725372c-0.5495949,0-0.6948528-0.7626724-0.1835938-0.9648438
				c1.5629883-0.6171875,2.699707-2.2207031,2.7646484-3.9003906c0.0102539-0.2753906,0.262207-0.4853516,0.5185547-0.4804688
				c0.2763672,0.0107422,0.4912109,0.2431641,0.4804688,0.5195313c-0.0791016,2.0634766-1.4760742,4.0332031-3.3964844,4.7910156
				C19.7307224,86.761795,19.6682224,86.7725372,19.6071873,86.7725372z" fill="#000000" class="color000 svgShape">
                  </path>
                  <path fill="#ffffff"
                    d="M54.799572 94.956131c-.0908203-.2607422.0463867-.5458984.3071289-.6367188 1.7719727-.6191406 3.3198242-1.8222656 4.3588867-3.3857422.1523438-.2304688.4628906-.2919922.6933594-.1396484.2299805.1523438.2924805.4628906.1396484.6923828-1.1591797 1.7451172-2.8857422 3.0859375-4.8618164 3.7763672C55.1815948 95.3539047 54.8921204 95.2200165 54.799572 94.956131zM74.7219315 94.956131c-.0908203-.2607422.0463867-.5458984.3071289-.6367188 1.7719727-.6191406 3.3198242-1.8222656 4.3588867-3.3857422.1523438-.2304688.4628906-.2919922.6933594-.1396484.2299805.1523438.2924805.4628906.1396484.6923828-1.1591797 1.7451172-2.8857422 3.0859375-4.8618164 3.7763672C75.1039581 95.3539047 74.8144836 95.2200165 74.7219315 94.956131zM94.3181229 94.3828888c-.0908203-.2607422.046875-.5458984.3076172-.6367188 1.7714844-.6181641 3.3188477-1.8203125 4.3579102-3.3847656.152832-.2314453.4633789-.2910156.6928711-.140625.2304688.1533203.2929688.4638672.1401367.6933594-1.1586914 1.7451172-2.8852539 3.0859375-4.8618164 3.7753906C94.7023087 94.7805328 94.4111176 94.6480484 94.3181229 94.3828888zM29.2092381 36.1240997c-2.8345718 0-4.5119247-1.8162689-4.5380859-3.5732422-.0039063-.2763672.2163086-.5039063.4926758-.5078125.2739258.0214844.503418.2167969.5073242.4921875.019043 1.2695313 1.2685547 2.2236328 2.4345703 2.4775391 1.3564453.2929688 2.8369141-.0576172 4.1435566-.3691406.2680664-.0634766.5380859.1015625.6020508.3710938.0639648.2685547-.1020508.5380859-.3706055.6015625C31.4621677 35.8584747 30.3449802 36.1240997 29.2092381 36.1240997z"
                    class="colorfff svgShape"></path>
                  <path
                    d="M31.434824 83.5215607c-.2094727-.1796875-.2333984-.4951172-.0537109-.7050781.1816406-.2070313.4970703-.2314453.70508-.0527344 1.9384766 1.6640625 4.5112305 2.5849609 7.0703125 2.5537109.2788086-.0263672.503418.2158203.5078125.4921875s-.2158203.5029297-.4921875.5078125C36.4129295 86.3634415 33.5795555 85.3627777 31.434824 83.5215607zM30.9172459 88.58992c-.2441406-.1289063-.3378906-.4316406-.2089844-.6757813.1298828-.2441406.4301758-.3378906.6757813-.2089844 2.2602558 1.1914063 4.9760761 1.5097656 7.4531269.8769531.2680664-.0712891.5390625.0927734.6083984.3603516.0683594.2675781-.0927734.5400391-.3603516.6083984C36.353714 90.2501221 33.3830872 89.8895798 30.9172459 88.58992zM17.5681248 67.2959747c-.2749023 0-.4985352-.2226563-.5-.4980469L17.044199 62.02742l.9995117-.0546875-.5.0029297.5004883.046875.0239258 4.7714844c.0014648.2753906-.2211914.5009766-.4975586.5019531C17.5695896 67.2959747 17.5691013 67.2959747 17.5681248 67.2959747zM15.3156843 66.7891388l-1.8071289-2.2783203c-.1713867-.2167969-.1347656-.53125.081543-.7021484.2158203-.1738281.5297852-.1357422.7026367.0810547l1.8061514 2.2783203c.171875.2158203.1352539.5302734-.0810566.7021484C15.8029909 67.0416107 15.486969 67.0062103 15.3156843 66.7891388zM13.8781843 68.596756c-1.390625-1.4150391-3.2412109-2.3359375-5.2104492-2.5908203-.2739258-.0361328-.4667969-.2861328-.4311523-.5605469.034668-.2744141.2807617-.4765625.5600586-.4316406 2.1899414.2841797 4.2480469 1.3076172 5.7944336 2.8818359.1938477.1972656.190918.5136719-.0058594.7070313C14.3872881 68.7965851 14.0709248 68.7933502 13.8781843 68.596756z"
                    fill="#000000" class="color000 svgShape"></path>
                  <path fill="#33e3ad"
                    d="M49.1228142 14.4375753c-.2091904.5601473-.7802467 1.0140209-1.484375.8320313-.5541992-.078125-1.1079102-.1386719-1.7016602-.2382813 0 1.0594702 0 3.7390985 0 4.8808584.4550781.0195313.890625.0585938 1.3256836.078125.3135872 0 .5460701.0506668.831543.3378906.2775383.2794094.4492073.8324642.2373047 1.3085938-.0395508.140625-.1186523.2792969-.2373047.3574219-.0991211.1191406-.2177734.1992188-.3764648.2578125-.3702927.1874313-.3564224.0605469-1.7412109.0605469.0195313 1.1699219.059082 3.0351563.0791016 4.2246094 0 .296875-.1186523.6152344-.3364258.8535156-.2177734.2167969-.5541992.3164063-.8510742.3574219-.1582031 0-.296875-.0605469-.4355469-.140625-.4892502-.1208019-.7214851-.6184788-.7519531-1.0703125 0-3.4726276-.1186523-1.4238033-.1186523-11.8027334 0-1.2099714.3676949-1.4684715.5146484-1.6660156.3684311-.3720789.6926498-.4765625 1.3061523-.4765625.9684105.095645 1.010582.1628695 2.8891602.3769531.1982422.0605469.3759766.1796875.5146484.3183594C49.0420036 13.5386095 49.1966515 13.8432207 49.1228142 14.4375753zM56.9377556 19.2383556c.0595703 1.109375.0395508 2.1816406-.0791016 3.2519531-.0595703.6347656-.1386719 1.2304688-.2373047 1.9042969-.1191406.8730469-.3959961 1.765625-1.0292969 2.4609375-.1386719.1582031-.3164063.2578125-.4946289.375-.0595703.0800781-.1782227.1191406-.237793.1796875-.1582031.0800781-.355957.1777344-.5341797.2382813-.5539742.1094265-.6529961.0996017-1.2070313 0-.1586914-.0195313-.3564453-.1386719-.5146484-.1992188-.2573242-.1582031-.4750977-.3574219-.6928711-.5351563-.2573242-.1992188-.4350586-.4765625-.6132813-.6933594-.0632057-.1394863-.4763489-.8399429-.6333008-1.5878906-.602066-1.6099072-.624649-4.8425026-.4951172-6.5664063.5742188-6.6054678 5.6801758-7.4179678 6.6298828-.3769531C56.8786736 18.1856213 56.8982048 18.7422619 56.9377556 19.2383556zM54.2463493 17.13484c-.1186523-2.1425772-1.3061523-2.2421865-1.4643555.1191406-.1191406 1.7460938-.237793 3.4121094-.0200195 5.2363281.2373047 1.7265625 1.0883789 3.7304688 1.484375.8144531C54.4029617 22.4772148 54.5498047 19.9382687 54.2463493 17.13484zM61.9025993 22.212965c.8110352.9316406 1.9985352 2.5195313 2.6914024 3.53125.3488388.4486809.2394104.6641483.2768555.8925781-.0395508.296875-.2177734.5742188-.4550781.7929688-.1186523.0996094-.2573242.1582031-.3759766.1992188-.4693298.1158848-.5634155.0711575-.9106407-.0996094-.3422585-.1165924-.349411-.3183689-1.1079102-1.3085938-.3959961-.5566406-1.1083984-1.5488281-1.5834961-2.0644531.0200195.5761719.0200195 1.8457031.0395508 2.4003906.0200195.3378906-.1381836.6347656-.3364258.8730469-.4550781.4570313-1.2070313.4160156-1.7016602 0-.1982422-.21875-.3168945-.5351563-.3364258-.8730469-.0400391-.8925781-.0595703-2.4785156-.0595703-3.3925781-.073513-2.9477787-.1186523-7.6990442-.1186523-9.5605459 0-.3164063.1186523-.5957031.3364258-.8320313.2444229-.2674408.7546387-.4477644 1.2070313-.2988281 1.8440552-.2728567 3.7701416.4679298 4.6708946 2.1425781.2535782.4445372.3876114.9825315.4946289 1.468749.1172714.9381618.1303482 1.5340347-.1186523 2.5976563-.0259018.2578068-.4046707 1.2331142-.5937462 1.5273438C63.410141 21.1021538 62.4571152 21.9391308 61.9025993 22.212965zM61.6057243 15.1914816c-.3616028-.1578827-.4558601-.3769531-1.3061523-.3769531 0 .381053.0281715 3.4006472.059082 5.4746084.0595703-.0195313.1186523-.0195313.1977539-.0410156.2628479-.115221.7029953-.4149055 1.0688477-.8710938.3919106-.4810314.586956-1.1258068.6928711-1.7265625.0395508-.3378906.0395508-.6542969.0195313-1.0117188-.059082-.2382813-.1186523-.4570313-.1782227-.7148428-.0986328-.1386719-.1777344-.3164063-.2768555-.4160156C61.8034782 15.3887472 61.7043571 15.3106222 61.6057243 15.1914816zM68.0944901 21.5391369c.0395508.5546875.1582031 2.6582031.5141602 3.09375.3564453.4570313.890625-.1386719.7524414-1.6464844-.0323257-.4793606.5527649-1.2587814 1.2861328-1.2089844.1782227-.0214844.3168945.0390625.4946289.1582031.1191406.0585938.2573242.1386719.3759766.296875.1386719.0800781.1782227.2578125.2177734.3769531.1843414.6164684-.0148315 1.9520683-.1977539 2.578125-.3262177 1.0751495-.6445465 1.4299831-1.0092773 1.8847656-.0791016.0605469-.1386719.0996094-.2177734.1386719-.2627792.4245968-1.3493805.7624588-2.1572266.4179688-.8123627-.2741318-1.6553879-1.1254387-1.9194336-2.4609375-.237793-.6933594-.3759766-1.5078125-.4355469-2.2617188-.2373047-1.7246094-.2373047-3.4316406-.0200195-5.0976563.0200195-.3964844.0795898-.7929688.1782227-1.2089844.0679245-.8183889.3701477-2.0326033.890625-2.6582022.2293625-.2312441.7185669-.8503103 1.1674805-1.0117188.1896515-.0697365.6337662-.2988558 1.2470703-.2382813.7465668.1051493.7049408.1345863 1.1479492.3769531.8110428.4545393 1.882637 2.1421013 1.8208008 2.8964844-.0200195.0996084-.0395508.2382803-.0795898.3574209-.1058502.3972683-.5359573.8515625-1.0488281.8515625-.1582031.0410156-.3364258 0-.4746094-.0585938-.1586914-.0195313-.3168945-.1191406-.3959961-.2382813-.1582031-.0996094-.2573242-.21875-.3168945-.3769531-.6333008-1.5078115-1.3457031-1.4082022-1.5234375.3378906C68.0942612 18.4160252 68.0002136 20.1047211 68.0944901 21.5391369zM79.2531815 14.2989035c-.059082.1582031-.0991211.296875-.2177734.3964844-.19561.2946272-.5102234.4550781-.7714844.4550781-.3826828.0989103-.396286-.0748072-1.7416992-.3164063-1.3765793-.2076406-1.0372696-.6367435-1.1679688 1.8242178-.0195313.7734375-.0395508 1.546875-.0195313 2.3203125.4155273 0 .8115234 0 1.2666016.0410156.1977539 0 .3959961.0585938.5737305.1582031.172554.1746845.4897308.1990585.59375 1.03125 0 .4265766-.2895126.9770966-.7319336 1.0917969-.3257675.1376476-.3592377.102438-1.6425781.0390625.0388489 1.0254421.1212692 2.7681103.2568359 3.7890625.0795898.515625.9697266.2578125 1.3061523.1582031.296875-.0996094.6333008-.0390625.890625.0800781.2773438.1777344.4555664.4550781.5742188.734375.0195313.1777344.0395508.3164063 0 .4746094 0 .1601563-.0395508.2988281-.1386719.4375-.4218826.6565228-1.1400452.6721382-2.0581055.8320313-.3364258.0410156-.6728516 0-1.0092773-.078125-.1982422-.0410156-.3759766-.1191406-.5742188-.1992188-.4887772-.2739315-.6263885-.4616318-.890625-.8125-.0395508-.0800781-.0986328-.1386719-.1186523-.1992188-.1969528-.3939056-.222229-.4852352-.2768555-.8730469-.0200195-.2382813-.0791016-.4960938-.1186523-.7539063-.0717392-1.2038078-.1283646-1.0897484-.1982422-3.5097656-.1028061-1.7794285-.146019-6.0327415.1186523-7.359374 0-.1386719.0595703-.2578125.0795898-.3574219.0791016-.1386719.1186523-.3183594.1977539-.4375.1186523-.1386719.1977539-.2578125.296875-.3554688.0195313-.0195313.0395508-.0605469.059082-.0800781.2062759-.1014471.4863663-.515625 1.4448242-.515625.1586914-.0195313.296875 0 .4355469.0195313.1644592 0 1.485527.1518307 2.7509766.4960938C78.9643631 12.9673853 79.4098129 13.5131855 79.2531815 14.2989035zM82.6745682 23.1250744c-.0200195.2382813-.1186523.4375-.1977539.6347656-.0795898.0996094-.1191406.1582031-.1982422.2382813-.7574158.7605324-2.1307602.3200493-2.1967773-.8730469.1388855-1.5710011.1663971-6.1161327-.1381836-9.2246084-.0395508-.3164063.1582031-.6542969.3955078-.8710938.2658997-.3746138.922081-.4224653 1.4052734-.2792969.1386719.0605469.2573242.1601563.3759766.2792969.1186523.0976563.2373047.2363281.2573242.3769531.0991211.1777344.1186523.3164063.1186523.4941406C82.6191483 15.9987154 82.8838577 16.8310623 82.6745682 23.1250744zM82.4768143 26.4375744c0 .1386719-.0200195.3183594-.1191406.4570313-.059082.1582031-.1582031.296875-.2373047.4160156-.2373047.21875-.5737305.3769531-.9101563.3769531-1.5634766 0-1.6826172-2.5195313 0-2.5195313C81.8291397 25.1680431 82.4768143 25.6381798 82.4768143 26.4375744z"
                    class="color33e3ad svgShape"></path>
                  <path fill="#febce2"
                    d="M21.4541798 26.5986004c-.5490036-.5548668-1.5407734-.5833092-2.1206741-.0608177-.5799007.5224895-.6546307 1.5118484-.1597958 2.1155186.4948368.6036701 1.4796276.7245255 2.1057491.2584229s.7928391-1.4441738.3564873-2.0913811M13.7679605 30.2706814c-.8059559 1.0497818-.6794777 2.6768131.2228909 3.6449757.9023676.9681625 2.4521532 1.2247353 3.6552744.673275 1.0920601-.5005531 1.8889809-1.6964951 1.7266827-2.8867874C19.0477123 29.3178921 15.1920843 28.4157658 13.7679605 30.2706814z"
                    class="colorfebce2 svgShape"></path>
                  <path fill="#ffc502" d="M97.6555786,19.6503315c-0.8892593,0.1225491-1.4756241,0.6682358-1.9818649,1.3363094
			c-0.3688202,0.4818211-0.4248352,1.8227596-0.3804932,2.862421c0.004509,0.1056881-0.1376801,0.1333504-0.1759796,0.0347404
			c-0.5511093-1.4190903-1.8294601-2.9713326-3.1243286-3.2426624c-0.0909042-0.0190487-0.0895081-0.1429482-0.0016556-0.1730995
			c0.6229706-0.2137928,1.1491699-0.6065922,1.5291138-1.113121C93.8778,18.8832245,94.0181732,17.677002,94.02668,16.695631
			c0.0009308-0.1075287,0.1495438-0.1280079,0.1795273-0.0247402c0.2736282,0.9424896,0.7350311,2.0657825,1.2066956,2.4232178
			C96.0809708,19.6003132,96.7663193,19.7728806,97.6555786,19.6503315z" class="colorffc502 svgShape"></path>
                </svg>